<?xml version="1.0" encoding="UTF-8"?>
<svg width="119px" height="96px" viewBox="0 0 119 96" version="1.1" xmlns="http://www.w3.org/2000/svg" xmlns:xlink="http://www.w3.org/1999/xlink">
    <!-- Generator: Sketch 61.2 (89653) - https://sketch.com -->
    <title>Group 12</title>
    <desc>Created with Sketch.</desc>
    <g id="Page-2" stroke="none" stroke-width="1" fill="none" fill-rule="evenodd">
        <g id="Desktop-HD" transform="translate(-200.000000, -2982.000000)">
            <g id="Group-5" transform="translate(4.000000, 2700.000000)">
                <g id="Group-8" transform="translate(0.000000, 252.000000)">
                    <g id="Group-12" transform="translate(196.000000, 30.000000)">
                        <path d="M71.9404957,53.241761 C75.3562058,47.6148866 83.0493703,41.8712563 85.310668,39.2699881 C89.191645,34.8056495 91.6330459,30.5748224 92.6686402,24.8299367 C93.2614804,21.5419438 95.9542756,21.4477859 98.4106852,22.8814965 C101.720084,24.813616 102.332936,27.7977929 101.472442,31.3331071 C101.055953,33.0379924 95.8867368,45.4015488 100.541908,45.4015488 L112.267387,45.1027545 C115.481731,45.1027545 118.088227,47.7190879 118.088227,50.9455644 C118.088227,52.5048188 117.476626,53.9171869 116.486057,54.9642224 C118.004429,56.0175351 119,57.7764042 119,59.7700402 C119,61.7172251 118.046953,63.4396864 116.586115,64.5005318 C117.516649,65.535013 118.088227,66.9034407 118.088227,68.4087112 C118.088227,70.8743921 116.563602,72.9797621 114.409866,73.8372265 C114.886389,74.6846473 115.161547,75.6601229 115.161547,76.7033921 C115.161547,79.9298686 112.593824,82.4972399 107.3233,82.4972399 C107.3233,82.4972399 90.0621445,84.0753259 78.7769187,81.6397756 C76.6206814,81.1752634 70.4396345,78.0843743 68.8524737,72.5378478 C66.8713369,65.6103393 68.5247857,58.8686355 71.9404957,53.241761 Z" id="Fill-1" fill="#FFFFFF"></path>
                        <g id="Group-4" fill="#00C6E0">
                            <path d="M41.5254054,6.39488462e-14 C53.1124054,0.0552248854 64.5172054,5.18002489 72.2302054,13.7676249 C80.9054054,23.4266249 84.6290054,37.3238249 81.9404054,50.0430249 C78.5974054,65.8566249 65.2796054,79.1198249 49.1040054,82.1700249 C36.6824054,84.5122249 23.2448054,80.8416249 13.7152054,72.2826249 C7.26260543,66.4870249 2.68780543,58.6392249 0.869605435,50.1692249 C-2.43139457,34.7916249 3.84840543,17.7774249 16.5998054,8.23882489 C23.5378054,3.04882489 32.1074054,0.128224885 40.8566054,0.00322488545 C41.0796054,6.39488462e-14 41.3024054,6.39488462e-14 41.5254054,6.39488462e-14 Z M61.7344054,44.1488249 C57.1738054,47.7594249 54.8238054,53.3428249 53.0928054,59.1040249 C50.8711652,66.4165465 47.5910094,73.7712318 42.1463172,78.8804051 C55.0962762,78.5942023 67.6649488,71.0974031 74.0408054,59.7788249 C76.9824812,54.5563972 78.564422,48.6106527 78.7574039,42.6233076 C78.3509012,42.4093623 77.913773,42.1880423 77.4950054,42.0154249 C72.3760054,39.9060249 66.3114054,40.5254249 61.7344054,44.1488249 Z M44.6075712,4.14949226 L44.6344952,4.2500044 C46.550736,11.6503041 44.5245054,20.0463749 39.2632054,25.7174249 C32.3748054,33.1424249 20.5366054,34.4110249 11.9266054,38.2186249 C8.82320543,39.5912249 5.85360543,41.5070249 4.37260543,44.6068249 C4.37260543,44.6068249 4.27741361,44.7082372 4.11414864,44.8483232 C4.23762834,46.3144482 4.45131339,47.7734471 4.75620543,49.2158249 C7.90496828,64.1107586 20.9433673,76.3389258 36.4154563,78.5361458 C36.6087408,78.2574042 36.8632124,78.0026935 37.1760054,77.7920249 C43.9680054,73.1352249 47.3428054,64.2560249 49.8616054,55.9038249 C52.6314054,46.8848249 58.9582054,37.7880249 69.5372054,36.8208249 C70.1836054,36.7616249 70.8322054,36.7386249 71.4804054,36.7434249 C73.9255127,36.7808653 76.362031,37.2915369 78.6438951,38.1756814 C78.3054141,34.1037958 77.3156283,30.0906483 75.6660054,26.3536249 C70.2738651,14.1382328 57.9856287,5.38693588 44.6075712,4.14949226 Z M40.3903552,4.01529392 L40.2135725,4.02061424 C30.1777833,4.36474973 20.2942224,8.90772997 13.5288054,16.4404249 C8.10788,22.476123 4.82716953,30.3403338 4.12260689,38.4194245 C10.1724002,32.8994808 19.5693621,31.8114799 26.4948054,29.1360249 C30.8814054,27.4414249 35.1640054,24.9816249 37.8950054,21.0502249 C41.2914339,16.1609495 42.2928471,9.63920304 40.3903552,4.01529392 Z" id="Combined-Shape"></path>
                        </g>
                        <ellipse id="Oval" fill="#00C6E0" cx="42" cy="94" rx="18" ry="2"></ellipse>
                    </g>
                </g>
            </g>
        </g>
    </g>
</svg>