<?xml version="1.0" encoding="UTF-8"?>
<svg width="134px" height="106px" viewBox="0 0 134 106" version="1.1" xmlns="http://www.w3.org/2000/svg" xmlns:xlink="http://www.w3.org/1999/xlink">
    <!-- Generator: Sketch 61.2 (89653) - https://sketch.com -->
    <title>Group 14</title>
    <desc>Created with Sketch.</desc>
    <g id="Page-2" stroke="none" stroke-width="1" fill="none" fill-rule="evenodd">
        <g id="Desktop-HD" transform="translate(-164.000000, -3476.000000)">
            <g id="Group-5" transform="translate(4.000000, 2700.000000)">
                <g id="Kaart-alle" transform="translate(0.000000, 756.000000)">
                    <g id="Group-14" transform="translate(160.000000, 20.000000)">
                        <path d="M67.4835569,105.063067 C75.1912415,97.7717453 80,87.4474455 80,76 C80,53.90861 62.09139,36 40,36 C17.90861,36 0,53.90861 0,76 C0,87.4089468 4.77646838,97.7022897 12.4387768,104.9894 C25,105 54,105 67.4835569,105.063067 Z" id="Oval" fill="#FFFFFF"></path>
                        <path d="M35.3701194,105.50891 C33.4691032,105.095506 32.9438988,101.723077 35.6547219,101.529276 L54.9528863,101.529276 L54.9528863,43.9027848 C54.9528863,43.9027848 56.0030952,40.9149594 58.0341125,42.2201705 C58.5931173,42.5795736 58.90372,43.215179 58.9529204,43.9027848 L58.9529204,101.529276 L99.7152677,101.529276 L99.7152677,65.1489659 C99.8408688,63.3915509 102.31229,62.3787423 103.397699,64.0677566 C103.602701,64.3865594 103.687702,64.7633626 103.715302,65.1489659 L103.715302,101.529276 L119.203434,101.529276 C119.203434,101.529276 121.203451,102.00868 121.203451,103.529293 C121.203451,104.570502 120.293843,105.451309 119.203434,105.52931 L35.6547219,105.52931 C35.5597211,105.52251 35.4649203,105.51571 35.3701194,105.50891 Z M96.0578365,59.6259188 C97.4646485,60.0137221 98.104054,61.7823372 97.1026454,62.9775474 L80.9585079,79.6656895 C79.7256974,80.770099 77.4254778,79.9620921 77.5240786,78.1654768 C77.5498788,77.6932727 77.7670807,77.2622691 78.0834834,76.8844659 L94.2276209,60.1963237 C95.1238286,59.3935168 95.2648298,59.5253179 96.0578365,59.6259188 Z M131.366337,56.013488 C133.009151,56.2144897 133.914759,58.478309 132.497347,59.5865185 C132.124744,59.8777209 131.65734,59.998122 131.164736,60.0083221 L107.974538,58.8383121 C106.331724,58.6373104 105.425916,56.3734911 106.843328,55.2652816 C107.215932,54.9740792 107.683336,54.8536781 108.17614,54.8434781 C115.906206,55.2334814 123.636271,55.6234847 131.366337,56.013488 Z M101.250281,54.959279 C102.432291,55.188081 103.5557,56.4682919 102.949095,57.8817039 C102.38789,59.1895151 100.467274,59.5787184 99.4540655,58.2127068 C98.6738588,57.1606978 99.171063,55.4322831 100.403674,55.0392797 C100.910478,54.8778783 101.067879,54.950479 101.250281,54.959279 Z M63.9619631,37.2967286 C64.1325645,37.345929 64.2773657,37.354129 64.7369697,37.6467315 L87.6251647,54.6348763 C88.8677753,55.7026854 88.4669718,58.0927057 86.5839558,58.235307 C86.1123518,58.2709073 85.6567479,58.1117059 85.2411444,57.8469036 L62.3529493,40.8587589 C60.9879377,39.6857489 61.7189439,36.9835259 63.9619631,37.2967286 Z M94.9912274,25.4230274 C96.1622374,25.7506302 96.2166379,25.8820313 96.5398406,26.9324402 L101.765885,49.556633 C101.945087,50.6992427 101.18068,51.898853 99.98547,51.9998538 C99.0356619,52.0798545 98.1598544,51.4040487 97.8684519,50.4570407 L92.6424074,27.8328479 C92.4340056,26.5038366 93.4450143,25.2210257 94.9912274,25.4230274 Z M49.988244,35.2539104 C51.4460564,35.4641129 52.3676643,37.2169279 51.4454564,38.4479384 C51.161854,38.8263416 50.7420504,39.0645436 50.2692464,39.2031448 L22.4150091,45.2511963 C20.7931952,45.4837983 19.2575822,43.6087823 20.3899918,42.0975695 C20.6733942,41.7191662 21.0931978,41.4809642 21.5662018,41.342363 L49.4204392,35.2943115 C49.4204392,35.2943115 49.6794414,35.2537111 49.988244,35.2539104 Z M57.2375058,33.3310948 C59.2701231,33.7732985 58.9757206,34.9647087 58.9529204,35.5267135 C58.8631196,37.7343323 57.5185082,37.6287314 56.6683009,37.5063303 C55.2942892,37.3087287 54.5050825,35.4201126 55.270289,34.2295024 C55.6376921,33.6578975 55.9552948,33.239294 57.2375058,33.3310948 Z M70.7540209,3.37507799e-14 C72.0036316,0.185212349 72.8622389,1.39902269 72.4738356,2.70123379 L62.3997497,29.367461 C61.7059438,30.8700738 59.2457229,30.9640746 58.6521178,29.3516609 C58.4887164,28.9078571 58.5171167,28.426053 58.6579179,27.9538489 L68.7320037,1.28762174 C69.2802084,0.100611628 69.3952093,-0.00558927658 70.7540209,3.37507799e-14 Z" id="Fill-1" fill="#00C6E0"></path>
                    </g>
                </g>
            </g>
        </g>
    </g>
</svg>