<?xml version="1.0" encoding="UTF-8"?>
<svg width="137px" height="99px" viewBox="0 0 137 99" version="1.1" xmlns="http://www.w3.org/2000/svg" xmlns:xlink="http://www.w3.org/1999/xlink">
    <!-- Generator: Sketch 61.2 (89653) - https://sketch.com -->
    <title>Group 13</title>
    <desc>Created with Sketch.</desc>
    <g id="Page-2" stroke="none" stroke-width="1" fill="none" fill-rule="evenodd">
        <g id="Desktop-HD" transform="translate(-160.000000, -3236.000000)">
            <g id="Group-5" transform="translate(4.000000, 2700.000000)">
                <g id="Card-Bewaar" transform="translate(0.000000, 504.000000)">
                    <g id="Group-13" transform="translate(156.000000, 32.000000)">
                        <path d="M2.74884437,18.0036987 C3.25016372,18.0823919 3.78147117,18.3673592 4.53337169,18.7805381 C18.092702,26.1862177 33.9096179,30.1035321 43.4494441,42.083039 C49.7428624,49.9859527 52.3053532,60.4622454 52.2354856,70.7013545 L52.2354856,77.9783494 C54.9096075,79.7047118 57.6468457,81.3269909 60.579242,82.5804053 C60.579242,82.5804053 60.8106685,82.6360741 61.1857552,82.9574705 C61.9742381,83.6330653 62.2309425,84.8508391 61.7746838,85.7923192 C61.1562381,87.0687581 59.5557216,87.3125652 58.0230315,86.6221465 C54.7574689,85.1509457 51.6839244,83.2783938 48.6868418,81.3047549 C48.6868418,81.3047549 45.604976,82.7497771 42.8831243,83.4955492 C32.245671,86.4100374 20.2841882,83.3908352 12.6066072,74.5532226 C5.29437854,66.1363585 2.34486859,54.8311848 0.974051414,44.0409077 C-0.00990360016,36.2956959 -0.160629117,28.4710024 0.135483721,20.6554556 C0.169553968,19.7534009 0.92804873,17.9063966 2.74884437,18.0036987 Z" id="Fill-1" fill="#FFFFFF"></path>
                        <path d="M78.1017218,7.81597009e-14 C62.7250122,0.0731596736 47.6910448,8.42049446 39.5693344,21.6973094 C32.0087185,34.0568917 30.8601204,50.0668421 36.7169759,63.4552254 C43.617942,79.2309398 60.2259213,90.3416464 77.5170888,90.6151131 C77.9216433,90.6214282 78.0804798,90.8055255 79.0055587,90.4620177 C79.1555922,91.51895 79.3283986,91.7051522 79.4872351,92.0344987 C81.0201027,95.2116108 84.6873114,96.6430527 87.8804985,97.5342592 C95.1006685,99.5491859 103.09397,99.4437415 109.944223,96.6076494 C111.6698,95.8930766 113.328014,94.9542192 114.582248,93.5681318 C114.582248,93.5681318 114.928818,93.4929237 115.19463,93.5134002 C121.569139,93.9843599 128.350117,93.6276476 133.711326,89.8350921 C135.847963,88.3236578 137.553255,85.5997081 136.573827,82.9031241 C136.306484,82.1669267 135.879348,81.4956034 135.362651,80.9096308 C137.159034,78.849541 137.304857,75.6486991 135.330501,73.4089135 C135.372985,73.3610712 135.414895,73.3126548 135.456613,73.264047 C137.098179,71.3072966 137.35691,68.3628895 135.617938,66.2953362 C135.658125,66.2476853 135.697356,66.1994602 135.736587,66.1508524 C137.360546,64.0951641 137.360546,61.0581343 135.485893,58.9264723 C136.893031,57.3421264 137.49106,55.0244536 136.532874,52.9731667 C135.221995,50.1669282 132.136548,48.7165408 129.33873,47.7841898 C127.359015,47.1245401 125.302179,46.7150099 123.228885,46.4593406 C123.228885,46.4593406 123.386955,46.1026283 123.386955,46.1026283 C123.664824,45.3541833 123.559379,45.2858644 123.557657,45.0175648 C123.556126,44.7741431 123.552681,44.5309128 123.547323,44.2874911 C123.213766,29.2416589 114.822608,14.5611506 101.86117,6.63195756 C94.7527592,2.283283 86.5112516,-0.0131478526 78.1017218,7.81597009e-14 Z M112.160471,88.6619986 C112.24142,88.8659982 112.284095,89.0810973 112.305911,89.2988754 C112.51814,91.4242222 109.693338,92.6945312 107.395951,93.4791451 C100.288497,95.9064725 91.8923632,96.0410051 85.2861057,92.432164 C85.0683275,92.3133237 84.8545681,92.1874027 84.6459756,92.0530615 C84.4729778,91.9414933 84.3034247,91.8241839 84.1394212,91.6996025 C84.0167536,91.6065971 83.8969564,91.5095729 83.7813694,91.4077644 C83.6879812,91.325667 83.5972722,91.2403164 83.5101992,91.151521 C83.4409235,91.0807144 83.3737529,91.0078027 83.3096442,90.9322119 C83.2526162,90.8648499 83.198076,90.7955743 83.1465976,90.7238108 C83.1067928,90.6681223 83.0687104,90.6110943 83.0333071,90.5525353 C82.6842496,89.9772794 82.8691122,89.2584965 83.3483008,88.7444788 C83.3483008,88.7444788 83.6342065,88.8677206 83.9507312,89.0313413 C89.8682507,92.0526788 96.9726423,92.4139839 103.731038,91.3650891 C106.672192,90.9084821 109.593061,90.1257819 112.15205,88.6480287 C112.15205,88.6480287 112.158174,88.6566403 112.160471,88.6619986 Z M132.329066,83.2657689 C132.707403,83.6552053 133.064498,84.1242513 133.056224,84.6577887 C133.035984,85.9571858 131.668651,86.6595109 130.761943,87.1800352 C126.539572,89.6041094 121.309068,90.0157446 116.232234,89.745914 C116.232234,89.745914 116.054835,87.535982 115.153868,86.1937182 L115.252041,85.9640751 C121.041534,86.6673571 127.181042,85.9516361 132.249074,83.2665343 C132.249074,83.2665343 132.28773,83.2240504 132.329066,83.2657689 Z M111.708074,81.4152283 C112.0933,81.8029424 112.461686,82.2633768 112.472402,82.8070568 C112.497663,84.1039661 111.129373,84.8156683 110.228981,85.3388718 C109.983071,85.4818246 109.731612,85.6148262 109.476134,85.7397904 C109.154825,85.8970959 108.827201,86.0415796 108.495367,86.1757295 C101.363227,89.0583243 92.7098926,88.907334 86.1585581,85.8513586 C84.9313072,85.2789732 84.1363593,84.6373122 84.1363593,84.6373122 C84.0756953,84.5890871 84.0165622,84.5391398 83.9578118,84.4886183 C83.8730353,84.4145584 83.7897896,84.3387762 83.7096059,84.2597407 C83.637077,84.18836 83.5668445,84.1144914 83.4996739,84.0381351 C82.8863355,83.3415511 82.9117876,82.1933356 83.7134333,81.3957087 C83.7134333,81.3957087 83.9987649,81.5363651 84.3164378,81.6908 C91.4566154,85.1231987 100.191473,85.1771648 107.734866,82.9603436 C109.089568,82.5622955 110.41614,82.0576549 111.665207,81.3962828 C111.665207,81.3962828 111.655256,81.3631759 111.708074,81.4152283 Z M78.3824605,3.8274055 C95.4548929,3.90858194 111.832846,15.4403008 117.469819,31.7648623 C118.973024,36.1181297 119.723957,40.7310852 119.731229,45.3134216 C119.731229,45.3134216 119.616407,45.5805731 119.958767,46.2052023 C113.964891,45.9956529 107.615642,46.5689952 102.8228,50.1039677 C100.245248,52.0048384 98.7049167,55.858058 101.359208,58.9033167 C101.359208,58.9033167 98.4547971,63.1557325 101.40705,66.4790507 C101.40705,66.4790507 98.1294694,66.2203195 95.2537638,66.3908295 C90.6844405,66.6619997 85.937718,67.4843133 82.2117589,70.1569761 C79.5744994,72.048661 77.9298722,75.9522107 80.6266475,79.0441635 C80.6266475,79.0441635 77.7700789,82.9687638 80.396239,86.2924647 C80.396239,86.2924647 79.9503486,86.8009328 79.6169834,87.3765715 C79.6169834,87.3765715 78.4974734,86.8112667 77.1764515,86.7798822 C57.7013783,86.2564873 39.5446478,70.8721229 37.0662248,50.3368641 C35.484558,37.2311332 40.5789985,23.4898651 50.3556701,14.6034432 C57.7871117,7.84868318 67.6412879,3.94226292 77.8454784,3.8291637 C78.0244086,3.8274055 78.2035302,3.8274055 78.3824605,3.8274055 Z M132.253475,75.7262036 C133.410685,76.8637024 132.96135,78.6673574 130.059618,80.0876999 C125.931018,82.1085591 121.01857,82.7278299 116.513164,82.2587839 C116.513164,82.2587839 116.291941,82.293039 116.201806,81.8448523 C115.994553,80.8120325 115.456806,79.8662857 114.753715,79.0680846 C114.792563,79.0244524 114.830646,78.9800548 114.868537,78.9356571 C114.98508,78.7969144 115.097606,78.6549184 115.204007,78.5083296 C120.98087,78.9509666 127.075215,78.3713092 132.038759,75.8371978 C132.1997,75.7539522 132.221708,75.6957759 132.253475,75.7262036 Z M97.9061415,70.1468335 C102.566939,70.1843419 107.465035,70.5322511 111.194821,73.4435514 C111.313662,73.5363654 111.42944,73.6330069 111.5412,73.7344326 C111.621575,73.8073443 111.699653,73.8827438 111.775053,73.9610138 C111.83476,74.0230174 111.892745,74.0867434 111.948433,74.152383 C112.980105,75.3704482 111.443027,77.2546697 109.476134,78.2170656 C102.910447,81.4299638 94.5257953,81.2288347 88.0037403,79.0562197 C85.8001235,78.3221273 82.9008795,77.2014691 82.9289963,75.2902645 C82.9538888,73.6242039 84.8139978,72.9228357 86.0389523,72.3410732 C89.6745851,70.6145399 93.8789672,70.1361168 97.9061415,70.1468335 Z M132.623009,68.6857294 C133.710369,69.8771942 131.849877,71.6720463 130.064402,72.5456469 C125.949007,74.5596167 121.127076,74.9746966 116.407337,74.7486896 C116.407337,74.7486896 116.290601,74.8906855 116.245247,74.5701421 C116.066317,73.430921 115.49795,72.3835571 114.727306,71.5160804 C114.727306,71.5160804 118.674488,71.8115545 121.960489,71.526223 C125.658891,71.2052967 129.386955,70.4340787 132.604063,68.6656356 C132.610379,68.6723335 132.616694,68.6790314 132.623009,68.6857294 Z M132.439869,61.2730419 C133.883558,62.728405 132.149944,65.2703626 127.387338,66.6708027 C120.091769,68.8156691 111.398438,69.0154586 105.301414,64.8168175 C105.152338,64.7140522 105.006514,64.6065027 104.865475,64.4932121 C104.761562,64.4095837 104.659945,64.3227021 104.561964,64.2321845 C104.483119,64.1596555 104.406572,64.0844474 104.332895,64.0065601 C104.274527,63.9449392 104.217882,63.881596 104.163724,63.8163391 C103.577943,63.1111435 103.704821,61.9914421 104.444846,61.2550532 C104.444846,61.2550532 104.731325,61.3962837 105.048998,61.5507187 C112.157791,64.9687647 120.886908,65.0485656 128.466852,62.820645 C129.821555,62.4224056 131.148126,61.9175735 132.397002,61.2562014 C132.397002,61.2562014 132.390304,61.2240514 132.439869,61.2730419 Z M118.637362,50.0052212 C123.283807,50.0425382 128.290409,50.4637419 131.926234,53.3019391 C132.044883,53.3945618 132.160661,53.4912032 132.272229,53.5926289 C132.352604,53.6655406 132.430874,53.7411315 132.506274,53.8192101 C132.565981,53.8812138 132.623774,53.9449397 132.679463,54.0105794 C133.705776,55.2223294 132.174248,57.1145884 130.207547,58.0771757 C122.872938,61.6676453 113.054165,61.2083591 106.657839,58.0771757 C105.269838,57.3978149 103.624254,56.4172389 103.662528,55.1316204 C103.712284,53.4697699 105.552873,52.7783528 106.771704,52.1994609 C110.407146,50.4729276 114.610188,49.9943132 118.637362,50.0052212 Z M60.0058467,37.7271623 L60.2582627,37.8308844 L76.2969185,45.8071542 L97.8550459,28.4786698 C97.8550459,28.4786698 100.724628,27.5815308 100.95695,29.7679243 C101.02412,30.4002083 100.736301,31.0129726 100.252902,31.4617334 L77.7402253,49.5576086 C76.7872065,50.2180238 76.658415,50.1784104 75.6891298,49.7795969 L58.5539283,41.2579247 C57.3345235,40.5385678 57.2105162,38.626215 58.4253281,37.9011169 C58.8857625,37.6263107 59.4401592,37.5842095 60.0058467,37.7271623 Z" id="Fill-1" fill="#00C6E0"></path>
                    </g>
                </g>
            </g>
        </g>
    </g>
</svg>