<?xml version="1.0" encoding="UTF-8"?>
<svg width="74px" height="74px" viewBox="0 0 74 74" version="1.1" xmlns="http://www.w3.org/2000/svg" xmlns:xlink="http://www.w3.org/1999/xlink">
    <!-- Generator: Sketch 61.2 (89653) - https://sketch.com -->
    <title>Group</title>
    <desc>Created with Sketch.</desc>
    <g id="Page-1" stroke="none" stroke-width="1" fill="none" fill-rule="evenodd">
        <g id="Group">
            <circle id="Oval" fill-opacity="0.08" fill="#333333" cx="37" cy="37" r="37"></circle>
            <path d="M33,31 L41,31 L41,25 L47,25 L37,15 L27,25 L33,25 L33,31 Z M31,33 L25,33 L25,27 L15,37 L25,47 L25,41 L31,41 L31,33 Z M59,37 L49,27 L49,33 L43,33 L43,41 L49,41 L49,47 L59,37 Z M41,43 L33,43 L33,49 L27,49 L37,59 L47,49 L41,49 L41,43 Z" id="Mask" fill="#FFFFFF" fill-rule="nonzero"></path>
        </g>
    </g>
</svg>