<?xml version="1.0" encoding="UTF-8"?>
<svg width="193px" height="106px" viewBox="0 0 193 106" version="1.1" xmlns="http://www.w3.org/2000/svg" xmlns:xlink="http://www.w3.org/1999/xlink">
    <!-- Generator: Sketch 61.2 (89653) - https://sketch.com -->
    <title>Group 11</title>
    <desc>Created with Sketch.</desc>
    <g id="Page-2" stroke="none" stroke-width="1" fill="none" fill-rule="evenodd">
        <g id="Desktop-HD" transform="translate(-151.000000, -2720.000000)">
            <g id="Group-5" transform="translate(4.000000, 2700.000000)">
                <g id="Group-9">
                    <g id="Group-11" transform="translate(146.999988, 19.999943)">
                        <path d="M155.805262,77.0356445 C156.411712,77.2098507 156.481912,77.3416201 156.663562,77.5707174 C156.845362,77.7996609 156.957112,77.8968351 157.000012,78.5410752 L157.000012,88.4629873 C156.906262,89.8686299 156.202312,89.9548874 155.602462,89.9968629 C154.787812,90.0540604 154.058212,89.3352484 154.000012,88.4629873 L154.000012,78.5410752 C154.089712,77.1972426 154.714762,76.8820417 155.805262,77.0356445 Z M173.608871,69.0012077 C174.292237,69.1199317 174.139061,69.1000424 174.527928,69.441374 L181.461878,76.4240608 C182.376983,77.4809496 181.932955,78.0491726 181.532539,78.5113702 C180.988825,79.1391082 179.963853,79.1594565 179.312551,78.5875616 L172.3786,71.6048747 C171.563029,70.6628852 172.106895,68.9493424 173.608871,69.0012077 Z M135.76912,69.0450303 C136.844768,69.3075611 137.453155,70.64656 136.590496,71.6375601 L129.612164,78.6281696 C128.713574,79.4130049 127.047429,78.902188 127.002935,77.5973457 C126.989938,77.2141182 127.001406,76.9771665 127.44986,76.4620609 L134.428192,69.4714514 C135.090858,68.8924745 135.182751,68.984682 135.76912,69.0450303 Z M154.648164,30.0000567 C162.452955,30.0743798 170.020994,34.6887555 173.61685,41.602121 C176.683493,47.4978552 176.800941,54.8402995 173.908844,60.8390498 C169.854803,69.2475398 159.948638,74.4588207 150.437216,72.6374787 C141.693305,70.9630815 134.433973,63.3471653 133.198062,54.5188771 C132.248421,47.7359058 134.759237,40.5569569 139.755337,35.8516301 C143.658507,32.175845 148.952173,30.0517967 154.370095,30.0000567 C154.462785,30.0000567 154.555474,30.0000567 154.648164,30.0000567 Z M191.757715,51.0140067 C193.21684,51.3075567 193.677396,53.8589067 191.546723,54.0000567 L181.548641,54.0000567 C180.132427,53.9061567 180.045521,53.2023567 180.003229,52.6023567 C179.945602,51.7878567 180.66982,51.0582567 181.548641,51.0000567 L191.546723,51.0000567 C191.617054,51.0047067 191.687384,51.0093567 191.757715,51.0140067 Z M127.745313,51.0140067 C129.238922,51.3146067 129.664716,53.8589067 127.534352,54.0000567 L117.537721,54.0000567 C116.382547,53.9234067 116.254298,53.4818067 116.078343,53.0022567 C115.751369,52.1114067 116.488493,51.0695067 117.537721,51.0000567 L127.534352,51.0000567 C127.604673,51.0047067 127.674993,51.0093567 127.745313,51.0140067 Z M180.783463,24.0450601 C181.879439,24.3123627 182.424134,25.7006811 181.606326,26.6393058 L174.616893,33.6330095 C173.727245,34.4093213 172.047361,33.9021513 172.00294,32.6015033 C171.98992,32.2180221 172.001408,31.9809136 172.450674,31.4654671 L179.440107,24.4717634 C180.103973,23.8924033 180.196032,23.9846718 180.783463,24.0450601 Z M128.6093,24.0011952 C128.896939,24.0511171 129.04091,24.0129866 129.528924,24.4416102 L136.467532,31.4291401 C137.204265,32.2801088 137.08401,32.7065886 136.663954,33.3517445 C136.173052,34.105779 135.031921,34.2221613 134.317689,33.5949222 L127.37908,26.6073923 C126.562836,25.6648491 127.106492,23.9495889 128.6093,24.0011952 Z M155.805262,13.0399994 C156.411712,13.2141264 156.481912,13.3458359 156.663562,13.5748291 C156.845362,13.8036686 156.957112,13.9007986 157.000012,14.5447459 L157.000012,24.4636858 C156.906262,25.8686897 156.202312,25.9549079 155.602462,25.9968644 C154.787812,26.0540358 154.058212,25.3355505 154.000012,24.4636858 L154.000012,14.5447459 C154.048162,13.8230331 154.536712,13.1801616 155.194912,13.0399994 C155.569912,12.9600823 155.675962,13.0217106 155.805262,13.0399994 Z" id="Fill-1" fill="#FFFFFF"></path>
                        <path d="M91.3632117,-7.10542736e-15 C97.9544117,0.0610567067 103.560412,5.86485671 103.670212,13.0708567 C103.865612,32.5052567 103.552012,51.9406567 103.759612,71.3978567 L103.809412,72.0828567 C112.301412,79.7820567 113.313812,94.8276567 102.455212,102.500257 C92.9190117,109.238457 77.1622117,105.420057 72.9320117,92.9308567 C70.5004117,85.7510567 72.9566117,77.3374567 78.7872117,72.0494567 C79.0286117,53.2668567 78.8054117,34.7468567 78.8600117,15.9316567 C78.8702117,12.4336567 79.0722117,8.84705671 80.7850117,5.92185671 C82.9182117,2.27905671 87.0478117,-0.0131432933 91.3632117,-7.10542736e-15 Z M91.1688117,4.00078521 C88.8062117,4.03865671 86.4838117,5.03065671 84.9760117,6.87705671 C82.6942117,9.67125671 82.8662117,13.6426567 82.8566117,17.2384567 C82.8174117,35.6402567 83.0184117,54.0922567 82.7828117,72.4176567 C82.7828117,72.4176567 82.5030117,74.0794567 81.3864117,75.0922567 C76.4660117,79.6068567 74.5600117,87.1778567 77.3090117,93.1204567 C80.3486117,99.6910567 88.4108117,103.473057 95.4882117,101.458257 C100.844212,99.9334567 105.216212,95.2880567 106.303012,89.7888567 C107.342412,84.5294567 105.293612,78.8940567 101.273612,75.1838567 C100.712812,74.6662567 99.8362117,73.5650567 99.7696117,72.3060567 C99.5516117,53.2692567 99.7824117,34.4132567 99.6846117,15.3926567 C99.6642117,11.4342567 98.9584117,7.06445671 95.3466117,5.02965671 C94.0850117,4.31885671 92.6222117,3.98125671 91.1688117,4.00078521 Z" id="Fill-1" fill="#00C6E0"></path>
                        <path d="M87.6578117,43.8974567 C87.6578117,38.8774567 94.9718117,38.7494567 94.9718117,43.8974567 C94.9718117,47.2314567 94.8098117,71.4814567 95.0578117,74.9974567 C95.1498117,76.2734567 95.9218117,77.8474567 96.9018117,78.6574567 C100.433812,81.5854567 101.931812,85.7054567 100.575812,89.8534567 C99.2778117,93.8254567 95.4918117,96.5494567 91.2618117,96.5494567 C87.0438117,96.5494567 83.2318117,93.8074567 81.9478117,89.8474567 C80.6018117,85.7014567 82.1058117,81.5814567 85.6378117,78.6534567 C86.6158117,77.8434567 87.3638117,76.2734567 87.4738117,74.9894567 C87.7518117,71.7414567 87.6578117,47.3754567 87.6578117,43.8974567" id="Fill-2" fill="#00C6E0"></path>
                        <polygon id="Mask" fill="#FFFFFF" fill-rule="nonzero" points="60.833345 48.3750567 48.149595 48.3750567 58.004595 38.5200567 53.715845 34.20089 39.5416784 48.3750567 33.458345 48.3750567 33.458345 42.2917234 47.6325117 28.1175567 43.313345 23.8288067 33.458345 33.6838067 33.458345 21.0000567 27.3750117 21.0000567 27.3750117 33.6838067 17.5200117 23.8288067 13.200845 28.1175567 27.3750117 42.2917234 27.3750117 48.3750567 21.2916784 48.3750567 7.1175117 34.20089 2.8287617 38.5200567 12.6837617 48.3750567 1.1700921e-05 48.3750567 1.1700921e-05 54.45839 12.6837617 54.45839 2.8287617 64.31339 7.1175117 68.6325567 21.2916784 54.45839 27.3750117 54.45839 27.3750117 60.5417234 13.200845 74.71589 17.5200117 79.00464 27.3750117 69.14964 27.3750117 81.83339 33.458345 81.83339 33.458345 69.14964 43.313345 79.00464 47.6325117 74.71589 33.458345 60.5417234 33.458345 54.45839 39.5416784 54.45839 53.715845 68.6325567 58.004595 64.31339 48.149595 54.45839 60.833345 54.45839"></polygon>
                    </g>
                </g>
            </g>
        </g>
    </g>
</svg>