<?xml version="1.0" encoding="UTF-8"?>
<svg width="74px" height="74px" viewBox="0 0 74 74" version="1.1" xmlns="http://www.w3.org/2000/svg" xmlns:xlink="http://www.w3.org/1999/xlink">
    <!-- Generator: Sketch 61.2 (89653) - https://sketch.com -->
    <title>Group 2</title>
    <desc>Created with Sketch.</desc>
    <g id="Page-1" stroke="none" stroke-width="1" fill="none" fill-rule="evenodd">
        <g id="Group-2">
            <circle id="Oval" fill-opacity="0.08" fill="#333333" cx="37" cy="37" r="37"></circle>
            <path d="M55,27.56 L55,23 C55,20.8 53.2,19 51,19 L23,19 C20.78,19 19,20.8 19,23 L19,51 C19,53.2 20.78,55 23,55 L51,55 C53.2,55 55,53.2 55,51 L55,46.44 C56.18,45.74 57,44.48 57,43 L57,31 C57,29.52 56.18,28.24 55,27.56 Z M53,31 L53,43 L39,43 L39,31 L53,31 Z M23,51 L23,23 L51,23 L51,27 L39,27 C36.8,27 35,28.8 35,31 L35,43 C35,45.2 36.8,47 39,47 L51,47 L51,51 L23,51 Z" id="Mask" fill="#FFFFFF" fill-rule="nonzero"></path>
            <circle id="Mask" fill="#FFFFFF" fill-rule="nonzero" cx="45" cy="37" r="3"></circle>
        </g>
    </g>
</svg>