<?xml version="1.0" encoding="UTF-8"?>
<svg width="168px" height="172px" viewBox="0 0 168 172" version="1.1" xmlns="http://www.w3.org/2000/svg" xmlns:xlink="http://www.w3.org/1999/xlink">
    <!-- Generator: Sketch 61.2 (89653) - https://sketch.com -->
    <title>Combined Shape</title>
    <desc>Created with Sketch.</desc>
    <defs>
        <path d="M125.998778,0 L126.149007,0.00539600228 C127.533576,0.105456229 128.41464,1.57842338 127.804447,2.85986716 L127.804447,2.85986716 L89.166,84 L165.997615,84 L166.147843,84.005396 C167.532412,84.1054562 168.413477,85.5784234 167.803283,86.8598672 L167.803283,86.8598672 L127.804447,170.859867 L127.800047,170.869548 C127.755625,170.961137 127.704365,171.049277 127.646795,171.133132 C127.635416,171.149759 127.62338,171.16671 127.6111,171.183444 C127.594894,171.205608 127.578191,171.227478 127.561046,171.249007 C127.546396,171.267103 127.531975,171.284514 127.517282,171.301654 C127.49788,171.324838 127.477354,171.347828 127.456299,171.370351 C127.445522,171.381045 127.435228,171.391745 127.424823,171.402324 C127.142242,171.692639 126.768163,171.900195 126.33689,171.972215 C126.33073,171.97233 126.325044,171.973277 126.319352,171.974201 C126.278173,171.981574 126.236102,171.986887 126.193538,171.990898 C126.129567,171.996787 126.064422,172 125.998778,172 L126.156115,171.994078 C126.10436,171.997999 126.051897,172 125.998778,172 L125.998778,172 L42.0012219,172 L41.8509935,171.994604 C41.8486227,171.994433 41.8462533,171.994257 41.8438855,171.994078 C41.830664,171.99278 41.8183055,171.991686 41.8059721,171.990479 C41.7638979,171.986887 41.7218269,171.981574 41.680279,171.975006 C41.6749563,171.973277 41.6692706,171.97233 41.6635915,171.971358 C41.2318371,171.900195 40.8577584,171.692639 40.5740915,171.402158 C40.564772,171.391745 40.5544786,171.381045 40.5442992,171.370223 C40.522646,171.347828 40.50212,171.324838 40.4821375,171.301403 C40.468025,171.284514 40.4536048,171.267103 40.439466,171.249428 C40.4218089,171.227478 40.4051062,171.205608 40.3888571,171.183413 C40.3766207,171.16671 40.3645846,171.149759 40.3527982,171.132598 C40.295635,171.049277 40.2443754,170.961137 40.1999533,170.869548 L40.1955534,170.859867 L0.196717009,86.8598672 C0.192453234,86.850913 0.188262271,86.8419494 0.184143784,86.8329771 C0.149010768,86.7573574 0.118914011,86.6798283 0.0936820023,86.6005368 C0.0899361087,86.5879266 0.0859170992,86.5748906 0.0820402097,86.5618475 C0.07288111,86.5317169 0.0647474878,86.5016897 0.0573122201,86.4714508 C0.0530068018,86.4534221 0.0488212863,86.4353837 0.0448993887,86.4173428 C0.0389585646,86.390353 0.0336499578,86.3631079 0.0289101891,86.3357231 C0.0257240716,86.317153 0.0228150961,86.2988517 0.0201707677,86.2805584 C0.0167711822,86.2570755 0.0137560443,86.2331007 0.0111797186,86.20904 C0.00831303105,86.182369 0.00603119743,86.1559995 0.00428650279,86.1296717 C0.00314191796,86.1121983 0.00220888696,86.0945522 0.00151392179,86.0768709 C0.000489806795,86.0508344 -1.21924136e-06,86.0254069 3.06142135e-07,86.0000389 C-1.40544024e-05,85.9752622 0.000476766094,85.9495008 0.0014809001,85.9236904 C0.00220888696,85.9054478 0.00314191796,85.8878017 0.0043104296,85.8701948 C0.00603119743,85.8440005 0.00831303105,85.817631 0.0111402407,85.7912327 C0.0137560443,85.7668993 0.0167711822,85.7429245 0.0202183895,85.7190464 C0.0228150961,85.7011483 0.0257240716,85.682847 0.0289004225,85.6645419 C0.0336499578,85.6368921 0.0389585646,85.609647 0.0448256382,85.5825581 C0.0488212863,85.5646163 0.0530068018,85.5465779 0.057458546,85.5285462 C0.0647474878,85.4983103 0.07288111,85.4682831 0.0816983103,85.4384908 C0.0859170992,85.4251094 0.0899361087,85.4120734 0.0940982319,85.3990462 C0.118914011,85.3201717 0.149010768,85.2426426 0.183687707,85.1673266 L0.196717009,85.1401328 L40.1955534,1.14013284 L40.272189,0.994826177 C40.6279277,0.382536025 41.2849273,0 42.0012219,0 L42.0012219,0 L125.998778,0 Z M5.16929339,88 L43.2631852,168 L122.831871,168 L84.7369787,88 L5.16929339,88 Z M125.999,165.349 L162.830707,88 L89.167,88 L125.999,165.349 Z M122.83287,4 L43.2641852,4 L4.612,84 L84.181,84 L122.83287,4 Z" id="path-1"></path>
    </defs>
    <g id="Page-2" stroke="none" stroke-width="1" fill="none" fill-rule="evenodd">
        <g id="Logos-/-TriCryo-/-Monochrome">
            <mask id="mask-2" fill="white">
                <use xlink:href="#path-1"></use>
            </mask>
            <use id="Combined-Shape" fill="#333333" fill-rule="nonzero" xlink:href="#path-1"></use>
        </g>
    </g>
</svg>